<mxGraphModel dx="1025" dy="1159" grid="1" gridSize="10" guides="1" tooltips="1" connect="1" arrows="1" fold="1" page="1" pageScale="1" pageWidth="1100" pageHeight="850" background="none" math="0" shadow="0"><root><mxCell id="0"/><mxCell id="1" parent="0"/><mxCell id="4ec97bd9e5d20128-1" value="" style="line;strokeWidth=2;html=1;fillColor=none;fontSize=28;fontColor=#004D99;strokeColor=#004D99;" parent="1" vertex="1"><mxGeometry x="40" y="400" width="1000" height="10" as="geometry"/></mxCell><mxCell id="4ec97bd9e5d20128-5" value="Stage 1" style="shape=offPageConnector;whiteSpace=wrap;html=1;fillColor=#0075E8;fontSize=15;fontColor=#FFFFFF;size=0.5093750000000015;verticalAlign=top;strokeColor=none;" parent="1" vertex="1"><mxGeometry x="120" y="340" width="160" height="40" as="geometry"/></mxCell><mxCell id="4ec97bd9e5d20128-6" value="&lt;span&gt;Stage 3&lt;/span&gt;" style="shape=offPageConnector;whiteSpace=wrap;html=1;fillColor=#0075E8;fontSize=15;fontColor=#FFFFFF;size=0.5093750000000015;verticalAlign=top;strokeColor=none;" parent="1" vertex="1"><mxGeometry x="573" y="340" width="160" height="40" as="geometry"/></mxCell><mxCell id="4ec97bd9e5d20128-7" value="&lt;span&gt;Stage 2&lt;/span&gt;" style="shape=offPageConnector;whiteSpace=wrap;html=1;fillColor=#0075E8;fontSize=15;fontColor=#FFFFFF;size=0.4178571428571445;flipV=1;verticalAlign=bottom;strokeColor=none;spacingBottom=4;" parent="1" vertex="1"><mxGeometry x="347" y="425" width="160" height="35" as="geometry"/></mxCell><mxCell id="4ec97bd9e5d20128-8" value="&lt;span&gt;Stage 4&lt;/span&gt;" style="shape=offPageConnector;whiteSpace=wrap;html=1;fillColor=#0075E8;fontSize=15;fontColor=#FFFFFF;size=0.4178571428571445;flipV=1;verticalAlign=bottom;strokeColor=none;spacingBottom=4;" parent="1" vertex="1"><mxGeometry x="800" y="425" width="160" height="35" as="geometry"/></mxCell><mxCell id="4ec97bd9e5d20128-9" value="" style="ellipse;whiteSpace=wrap;html=1;fillColor=#61BAFF;fontSize=28;fontColor=#004D99;strokeWidth=3;strokeColor=#004D99;" parent="1" vertex="1"><mxGeometry x="190" y="395" width="20" height="20" as="geometry"/></mxCell><mxCell id="4ec97bd9e5d20128-10" value="" style="ellipse;whiteSpace=wrap;html=1;fillColor=#61BAFF;fontSize=28;fontColor=#004D99;strokeWidth=3;strokeColor=#004D99;" parent="1" vertex="1"><mxGeometry x="417" y="395" width="20" height="20" as="geometry"/></mxCell><mxCell id="4ec97bd9e5d20128-11" value="" style="ellipse;whiteSpace=wrap;html=1;fillColor=#61BAFF;fontSize=28;fontColor=#004D99;strokeWidth=3;strokeColor=#004D99;" parent="1" vertex="1"><mxGeometry x="643" y="395" width="20" height="20" as="geometry"/></mxCell><mxCell id="4ec97bd9e5d20128-13" value="" style="ellipse;whiteSpace=wrap;html=1;fillColor=#61BAFF;fontSize=28;fontColor=#004D99;strokeWidth=3;strokeColor=#004D99;" parent="1" vertex="1"><mxGeometry x="870" y="395" width="20" height="20" as="geometry"/></mxCell><mxCell id="4ec97bd9e5d20128-14" value="&lt;h1&gt;Entry personal data&lt;/h1&gt;&lt;p&gt;Input： ID，&lt;span style=&quot;background-color: initial;&quot;&gt;Name，home&amp;nbsp;&lt;/span&gt;&lt;span style=&quot;background-color: initial;&quot;&gt;Address, email address, Phone number&lt;/span&gt;&lt;/p&gt;" style="text;html=1;spacing=5;spacingTop=-20;whiteSpace=wrap;overflow=hidden;strokeColor=#FFFF00;strokeWidth=3;fillColor=#E6E6E6;fontSize=13;fontColor=#000000;align=center;rounded=1;" parent="1" vertex="1"><mxGeometry x="93" y="430" width="215" height="120" as="geometry"/></mxCell><mxCell id="4ec97bd9e5d20128-16" value="&lt;h1&gt;Upload&amp;nbsp;&lt;/h1&gt;&lt;p&gt;Upload ID picture&lt;/p&gt;" style="text;html=1;spacing=5;spacingTop=-20;whiteSpace=wrap;overflow=hidden;strokeColor=#FFFF00;strokeWidth=3;fillColor=#E6E6E6;fontSize=13;fontColor=#000000;align=center;rounded=1;" parent="1" vertex="1"><mxGeometry x="319" y="250" width="215" height="120" as="geometry"/></mxCell><mxCell id="4ec97bd9e5d20128-17" value="&lt;h1&gt;Take picture&lt;/h1&gt;&lt;div&gt;Take&amp;nbsp; personal picture with ID&amp;nbsp;&lt;/div&gt;" style="text;html=1;spacing=5;spacingTop=-20;whiteSpace=wrap;overflow=hidden;strokeColor=#FFFF00;strokeWidth=3;fillColor=#E6E6E6;fontSize=13;fontColor=#000000;align=center;rounded=1;" parent="1" vertex="1"><mxGeometry x="545" y="430" width="215" height="120" as="geometry"/></mxCell><mxCell id="4ec97bd9e5d20128-18" value="&lt;h1&gt;Verification&lt;/h1&gt;&lt;p&gt;1. Take Face ID&amp;nbsp; (with phone) for verification&lt;/p&gt;&lt;p&gt;2. OTP for verification&amp;nbsp;&lt;/p&gt;" style="text;html=1;spacing=5;spacingTop=-20;whiteSpace=wrap;overflow=hidden;strokeColor=#FFFF00;strokeWidth=3;fillColor=#E6E6E6;fontSize=13;fontColor=#000000;align=center;rounded=1;" parent="1" vertex="1"><mxGeometry x="773" y="250" width="215" height="120" as="geometry"/></mxCell><mxCell id="TZqW8C1CJTeNhEsmsOI4-3" value="&lt;font style=&quot;font-size: 16px;&quot;&gt;These stage should be designed as data wallet&amp;nbsp; UI and interacte with system for personal data storage and verification process.&lt;/font&gt;" style="rounded=0;whiteSpace=wrap;html=1;strokeWidth=3;strokeColor=#0000CC;" parent="1" vertex="1"><mxGeometry x="93" y="590" width="947" height="60" as="geometry"/></mxCell></root></mxGraphModel>